<svg id="Layer_1" xmlns="http://www.w3.org/2000/svg" xmlns:xlink="http://www.w3.org/1999/xlink" viewBox="-99 0 400 200"><style>.st0{fill:none;} .st1{stroke:#000000;}</style><path d="M-69.9 92.1c-2.5 0-4.7-.9-6.4-2.6-2.4-2.4-2.3-5.1-2.3-9.7 0-4.7 0-7.4 2.3-9.7 1.7-1.7 3.8-2.6 6.4-2.6 4.5 0 7.8 2.6 8.6 7.5H-65c-.6-2.5-2.2-4.2-4.9-4.2-1.4 0-2.7.5-3.6 1.5-1.2 1.3-1.5 2.7-1.5 7.6 0 4.9.3 6.3 1.5 7.6.9.9 2.1 1.5 3.6 1.5 2.7 0 4.4-1.7 4.9-4.2h3.7c-.7 4.7-4.2 7.3-8.6 7.3M-20.3 71h-5.4v7.6h5.4c2.5 0 4.1-1.4 4.1-3.8s-1.7-3.8-4.1-3.8m4.2 20.9l-5.1-10.2h-4.6v10.2h-3.7V67.7h9.4c4.6 0 7.5 3 7.5 7.1 0 3.5-2.1 5.7-4.8 6.4l5.6 10.7h-4.3zM25.8 67.7h3.7v24.2h-3.7zM83.5 91.9V75.7l-5.6 11.8h-2.7l-5.7-11.8v16.2h-3.7V67.7h3.7l7.1 15.1 6.9-15.1h3.7v24.2zM126.5 71v20.9h-3.7V71h-6.7v-3.3h17.1V71zM175.1 71h-5.4v7.6h5.4c2.5 0 4.1-1.4 4.1-3.8s-1.7-3.8-4.1-3.8m4.2 20.9l-5.1-10.2h-4.6v10.2H166V67.7h9.4c4.6 0 7.5 3 7.5 7.1 0 3.5-2.1 5.7-4.8 6.4l5.6 10.7h-4.4zM222.1 73.2L218.3 84h7.5l-3.7-10.8zm6.4 18.7l-1.7-4.9h-9.6l-1.7 4.9h-3.9l8.9-24.2h3l8.9 24.2h-3.9zM272.1 92.1c-2.5 0-4.7-.9-6.4-2.6-2.4-2.4-2.3-5.1-2.3-9.7 0-4.7 0-7.4 2.3-9.7 1.7-1.7 3.8-2.6 6.4-2.6 4.5 0 7.8 2.6 8.6 7.5H277c-.6-2.5-2.2-4.2-4.9-4.2-1.4 0-2.7.5-3.6 1.5-1.2 1.3-1.5 2.7-1.5 7.6 0 4.9.3 6.3 1.5 7.6.8.9 2.1 1.5 3.6 1.5 2.7 0 4.4-1.7 4.9-4.2h3.7c-.7 4.7-4.2 7.3-8.6 7.3"/><path id="SVGID_x5F_1_x5F_" class="st0" d="M295.7 67.7v64.8"/><text><textPath xlink:href="#SVGID_x5F_1_x5F_" startOffset="33.594%"></textPath></text><path class="st1" d="M247.1 67.7v64.8M198.4 67.7v64.8M149.7 67.7v64.8M101 67.7v64.8M52.4 67.7v64.8M3.7 67.7v64.8M-45.1 67.7v64.8M-93.7 67.7v64.8"/></svg>