<svg id="Layer_1" xmlns="http://www.w3.org/2000/svg" viewBox="-99 0 400 200"><style>.st0{fill:#FFFFFF;} .st1{enable-background:new ;}</style><path class="st0" d="M221.2 92.6c2.2 0 4.3-1 6.5-1.4-8.4-.6-11.5-3.6-11.3-11.7 0-8.3.2-16.4 0-24.6-.2-8.1-4.1-11.9-12-12-8.7-.2-17.4-.2-26.1 0-7.2.2-11 3.9-11.1 11.3-.2 4.8-.2 9.7 0 14.5.3 6.8 4.1 10.7 10.9 10.9 6.8.3 13.5 0 20.3.2 7 0 11.3 3.2 12.2 11.1-12.9 0-25.5.6-38.2-.3-9-.6-16.3-9.9-16.7-19.3-.3-6.5-.3-13.1 0-19.6.6-11.6 9.5-20.1 21.2-20.5 7.9-.2 15.5.6 23.2-.2 13.5-1.1 22.8 4.1 28.2 16.4M46.4 70.9c-.6 11.6-9.4 20.3-21.1 20.6-5.1.2-10.2 0-15.2 0-4.9 0-9.7 0-14.5.2-12-.3-20.9-8.7-21.6-20.9-.3-6.1-.3-12.2 0-18.1.7-12.6 9.5-20.9 22.2-21 9.5-.2 18.8-.2 28.3 0 12.8.1 21.6 8.9 21.9 21.8.2 5.8.3 11.6 0 17.4zm90.5 20.3C129 91 125.6 87 125.6 80c-.3-8.3 0-16.4-.2-24.6-.3-9.3-3.6-12.6-12.9-12.6-8.3-.2-16.4-.2-24.6 0-7.9.2-11.5 3.6-11.7 11.6-.3 8.4 0 17-.2 25.3-.2 6.8-3.2 10.9-10.6 11.3 0-14.9-.9-29.9.3-44.5.7-8.7 10.4-14.9 19.6-15.1 9.7-.2 19.3 0 29 0 12.8.2 21.9 7.9 22.5 20.6s.1 25.5.1 39.2z"/><path d="M227.7 91.2c-8.3-.6-11.5-3.6-11.6-11.5-.2-8.3.2-16.4 0-24.6-.2-8.1-3.9-11.9-12-12-8.7-.2-17.4-.2-26.1 0-7.2.2-11 3.9-11.1 11.3-.2 4.8-.2 9.7 0 14.5.3 6.8 3.9 10.7 10.9 10.9 6.8.2 13.5 0 20.3.2 7 .2 11.3 3.2 12.2 11.1-12.9 0-25.7.7-38.2-.3-9-.7-16.1-9.9-16.7-19.3-.3-6.5-.3-13.1 0-19.6.6-11.6 9.5-20.1 21.2-20.5 7.7-.2 7.7-.2 23.2-.2 12.6-1 21.5 3.4 26.9 14 .7 1.4 1.1 3 1.1 4.7-.1 13.9-.1 27.6-.1 41.3zM10.2 91.5c-4.8 0-9.7.2-14.5 0-12-.3-20.9-8.7-21.6-20.9-.3-5.9-.3-12 0-18.1.7-12.5 9.5-20.9 22.2-21 9.5-.2 18.8-.2 28.3 0 12.8.1 21.7 8.9 21.8 21.8.2 5.8.3 11.6 0 17.4-.5 11.6-9.4 20.4-21.1 20.6-5 .2-10.1.2-15.1.2zm-.4-11.6c27.4 1 24.9-2.3 24.9-25.8v-.7c-.6-6.1-3.9-9.9-10.2-10.2-5.1-.3-10.2.2-15.2-.2-26.4-1-23.9 3.5-23.9 25.6V70c1 5.9 4.2 9.5 10.6 9.9 4.7 0 9.2-.1 13.8 0zM136.9 91.2c-7.9-.3-11.3-4.2-11.5-10.9-.2-8.3 0-16.4-.2-24.6-.2-9.3-3.6-12.5-12.9-12.6-8.3 0-16.4-.2-24.6 0-7.9.2-11.5 3.6-11.7 11.6-.3 8.4 0 16.8-.2 25.3-.2 6.7-3.2 10.9-10.6 11.3 0-15.1-.9-29.9.3-44.5.7-8.7 10.4-14.9 19.6-15.1 9.7-.2 19.3-.2 29 0 12.8.2 21.9 7.9 22.5 20.6.8 12.5.3 25.2.3 38.9z"/><path class="st0" d="M9.8 79.9c-4.7 0-9.1.2-13.8 0-6.4-.2-9.5-3.9-10.6-9.9-.2-.4 0-1 0-1.4 0-21.9-2.3-26.7 23.9-25.5 5.1.3 10.2-.2 15.2.2 6.3.3 9.5 3.9 10.2 10.2v.7c.1 23.3 2.6 26.7-24.9 25.7z"/><g class="st1"><path d="M-24.9 119.6c0-4.4 2.9-6.7 7.5-6.7s7.5 2.3 7.5 6.7v5.1c0 4.3-2.9 6.7-7.5 6.7s-7.5-2.3-7.5-6.7v-5.1zm7.5 8.9c2.5 0 4.2-1.2 4.2-3.9v-4.7c0-2.6-1.8-4-4.2-4s-4.2 1.4-4.2 4v4.7c.1 2.7 1.9 3.9 4.2 3.9zM-5.9 113.3l.2-.2h9.9l.2.2v2.6l-.2.1h-6.8v4.4h6.5l.2.2-.6 2.6-.2.2h-5.7v7.5l-.2.2h-2.9l-.2-.2v-17.6h-.2zM7.8 113.3l.2-.2h10l.2.2v2.6l-.2.1h-6.8v4.4h6.5l.2.2-.6 2.6-.2.2h-5.8v7.5l-.2.2h-3l-.2-.1-.1-17.7zM21.5 113.5l.2-.2 2.9-.3.2.2V131l-.2.2h-2.9l-.2-.2v-17.5zM28.9 119.6c0-4.4 2.9-6.7 7.5-6.7 5.5 0 6.9 4.1 6.9 4.1l-.1.2-2.6 1.1-.2-.1s-1-2.4-3.8-2.4c-2.4 0-4.2 1.4-4.2 4v4.7c0 2.7 1.8 3.9 4.2 3.9 3.4 0 4.2-2.5 4.2-2.5l.2-.1 2.6 1 .1.2s-1.1 4.3-7.1 4.3c-4.6 0-7.5-2.3-7.5-6.7l-.2-5zM46.9 113.3l.2-.2h10.2l.2.2v2.6l-.2.2h-7.1v4.2h6.3l.2.2-.7 2.5-.2.2h-5.5v5.1h7.1l.2.2-.4 2.6-.2.2h-9.9l-.2-.2v-17.8zM67 119.6c0-4.4 2.9-6.7 7.5-6.7 4.7 0 7.5 2.3 7.5 6.7v5.1c0 4.3-2.9 6.7-7.5 6.7s-7.5-2.3-7.5-6.7v-5.1zm7.5 8.9c2.5 0 4.2-1.2 4.2-3.9v-4.7c0-2.6-1.8-4-4.2-4s-4.2 1.4-4.2 4v4.7c0 2.7 1.8 3.9 4.2 3.9zM86 113.3l.2-.2h9.9l.2.2v2.6l-.2.2h-6.8v4.4h6.5l.2.2-.6 2.6-.2.2h-5.7v7.5l-.2.2h-2.9l-.2-.2v-17.6H86zM105.9 113.4l.2-.2 2.6-.3.2.1 7.5 10.7 1 1.7v-12l.2-.2 2.9-.3.2.2v17.8l-.2.2H118l-.2-.2-7.5-10.8-1-1.6v12.4l-.2.2h-2.9l-.2-.2-.1-17.5zM129.6 113.5l.2-.2 3-.3.2.2 6.4 17.8-.2.2h-3l-.2-.2-1.4-4.1h-6.4l-1.4 4.1-.2.2h-3l-.2-.2 6.2-17.5zm4 10.6l-1.8-5.4-.5-1.8-.5 1.8-1.8 5.4h4.6zM144 116h-4.9l-.2-.2v-2.6l.2-.2h13.6l.2.2-.6 2.6-.2.2h-4.6v15l-.2.2h-3l-.2-.2-.1-15zM155.2 113.5l.2-.2 2.9-.3.2.2V131l-.2.2h-2.9l-.2-.2v-17.5zM162.6 119.6c0-4.4 2.9-6.7 7.5-6.7s7.5 2.3 7.5 6.7v5.1c0 4.3-2.9 6.7-7.5 6.7s-7.5-2.3-7.5-6.7v-5.1zm7.4 8.9c2.5 0 4.2-1.2 4.2-3.9v-4.7c0-2.6-1.8-4-4.2-4s-4.2 1.4-4.2 4v4.7c0 2.7 1.8 3.9 4.2 3.9zM181.6 113.4l.2-.2 2.6-.3.2.1 7.5 10.7 1 1.7v-12l.2-.2 2.9-.3.2.2v17.8l-.2.2h-2.7l-.2-.2-7.5-10.8-1-1.6v12.4l-.2.2h-2.9l-.2-.2.1-17.5zM205.2 113.5l.2-.2 3-.3.2.2L215 131l-.2.2h-3l-.2-.2-1.4-4.1h-6.4l-1.4 4.1-.2.2h-3l-.2-.2 6.2-17.5zm4 10.6l-1.8-5.4-.5-1.8-.5 1.8-1.8 5.4h4.6zM217.4 113.5l.2-.2 2.9-.3.2.2v15.1h7.6l.2.2-.6 2.6-.2.2h-9.9l-.2-.2-.2-17.6z"/></g><g class="st1"><path d="M-17.3 142.6l.2-.2 4.3-.5.2.2 9.5 26.3-.2.2h-4.5l-.2-.2-2-6h-9.5l-2 6-.2.2h-4.5l-.2-.2 9.1-25.8zm5.9 15.7l-2.6-7.9-.7-2.6-.7 2.6-2.6 7.9h6.6zM-1.2 165.9l2.3-3h.4c1.1.9 3.4 2 5.6 2 2.3 0 4.3-1 4.3-3.7 0-2.2-2.2-3.1-4.7-4.1-3.3-1.3-7.1-2.7-7.1-7.5 0-4.9 4-7.9 8.7-7.9 4.7 0 7.7 2.3 7.7 2.3l.1.4-2.1 3.2-.4.1s-2.1-1.7-5.1-1.7c-2.6 0-3.8 1.4-3.8 3.4s2.1 2.9 4.3 3.7c3.4 1.2 7.4 2.9 7.4 7.9 0 6.2-5.1 8-9.3 8-4.5 0-8.3-2.8-8.3-2.8v-.3zM20 165.9l2.3-3h.4c1.1.9 3.4 2 5.6 2 2.3 0 4.3-1 4.3-3.7 0-2.2-2.2-3.1-4.7-4.1-3.3-1.3-7.1-2.7-7.1-7.5 0-4.9 4-7.9 8.7-7.9 4.7 0 7.7 2.3 7.7 2.3l.1.4-2.1 3.2-.4.1s-2.1-1.7-5.1-1.7c-2.6 0-3.8 1.4-3.8 3.4s2.1 2.9 4.3 3.7c3.4 1.2 7.4 2.9 7.4 7.9 0 6.2-5.1 8-9.3 8-4.5 0-8.3-2.8-8.3-2.8v-.3zM43 142.3l.2-.2h15.1l.2.2v3.8l-.2.2H47.9v6.2h9.2l.2.3-1 3.8-.3.2h-8.1v7.5h10.6l.2.3-.6 3.8-.3.2H43.2l-.2-.2v-26.1zM62.5 165.9l2.3-3h.4c1.1.9 3.4 2 5.6 2 2.3 0 4.3-1 4.3-3.7 0-2.2-2.2-3.1-4.7-4.1-3.3-1.3-7.1-2.7-7.1-7.5 0-4.9 4-7.9 8.7-7.9 4.7 0 7.7 2.3 7.7 2.3l.1.4-2.1 3.2-.4.1s-2.1-1.7-5.1-1.7c-2.6 0-3.8 1.4-3.8 3.4s2.1 2.9 4.3 3.7c3.4 1.2 7.4 2.9 7.4 7.9 0 6.2-5.1 8-9.3 8-4.5 0-8.3-2.8-8.3-2.8v-.3zM83.6 165.9l2.3-3h.4c1.1.9 3.4 2 5.6 2 2.3 0 4.3-1 4.3-3.7 0-2.2-2.2-3.1-4.7-4.1-3.3-1.3-7.1-2.7-7.1-7.5 0-4.9 4-7.9 8.7-7.9 4.7 0 7.7 2.3 7.7 2.3l.1.4-2.1 3.2-.4.1s-2.1-1.7-5.1-1.7c-2.6 0-3.8 1.4-3.8 3.4s2.1 2.9 4.3 3.7c3.4 1.2 7.4 2.9 7.4 7.9 0 6.2-5.1 8-9.3 8-4.5 0-8.3-2.8-8.3-2.8v-.3zM106.6 142.6l.2-.2 4.1-.5.3.2 8.3 14.7 8.1-14.2.3-.2 4.3-.5.3.2v26.4l-.2.2H128l-.2-.2v-17.6l-1.4 2.9-4.7 7.9-.3.2h-3.7l-.3-.2-4.7-7.9-1.3-2.6v17.5l-.2.2H107l-.2-.2v-25.8h-.2zM139.5 142.3l.2-.2h15.1l.2.2v3.8l-.2.2h-10.4v6.2h9.2l.2.3-1 3.8-.3.2h-8.1v7.5H155l.2.3-.6 3.8-.3.2h-14.6l-.2-.2v-26.1zM161 142.5l.2-.2 3.9-.5.3.2 11.1 15.9 1.5 2.5v-17.8l.2-.2 4.3-.5.2.2v26.3l-.2.2h-4l-.3-.2-11.1-16-1.4-2.3v18.4l-.2.2h-4.3l-.2-.2v-26zM194.6 146.4h-7.2l-.2-.2v-3.8l.2-.2h20.1l.2.3-1 3.8-.3.2h-6.7v22l-.2.2H195l-.2-.2v-22.1zM209.1 165.9l2.3-3h.4c1.1.9 3.4 2 5.6 2 2.3 0 4.3-1 4.3-3.7 0-2.2-2.2-3.1-4.7-4.1-3.3-1.3-7.1-2.7-7.1-7.5 0-4.9 4-7.9 8.7-7.9 4.7 0 7.7 2.3 7.7 2.3l.1.4-2.1 3.2-.4.1s-2.1-1.7-5.1-1.7c-2.6 0-3.8 1.4-3.8 3.4s2.1 2.9 4.3 3.7c3.4 1.2 7.4 2.9 7.4 7.9 0 6.2-5.1 8-9.3 8-4.5 0-8.3-2.8-8.3-2.8v-.3z"/></g></svg>