<svg id="Layer_1" xmlns="http://www.w3.org/2000/svg" viewBox="-99 0 400 200"><style>.st0{fill:#FFFFFF;} .st1{enable-background:new ;}</style><path d="M71 150.1l-108.2 23.8c-3.5.8-6.8-1.9-6.8-5.4V26H79.9v113.2c0 5.2-3.7 9.8-8.9 10.9z"/><path id="VabjlB.tif" class="st0" d="M18.7 43.5c-.2 2.9-.2 5.1-.7 7.2-.5 2.6-2.6 4.3-4.5 6.1C7 63 .6 69.3-5.9 75.5c-3.1 3-6.4 6-9.6 9-1.8 1.7-3.5 1.8-5.5.2-1.6-1.2-3-2.7-4.5-4.1-2.3-2.1-4.5-4.5-6.8-6.6-1.8-1.7-2.5-3.7-2.5-6.1.1-3.1.2-6.2.2-9.4 0-.8 1-1.8 1.8-2 .4-.1 2.1.3 2.8 1 2.7 2.6 5.4 5.1 8.2 7.7.9.8 2.1 1.5 3.1 2.4.6.5 1 .4 1.5-.2L-7 57.5C-.6 51.3 5.8 45 12.3 38.8c1.1-1.1 2.3-1.8 3.9-1.5.5.1 1.2.5 1.3.9.5 2.1.9 4 1.2 5.3z"/><path class="st1 st0" d="M-21.1 115.8h-5.4v8.2c0 1.2-.3 2.1-.8 2.7s-1.2.9-2.1.9c-.9 0-1.6-.3-2.1-.9-.5-.6-.8-1.5-.8-2.6v-22.3c0-1.3.3-2.2.9-2.8.6-.5 1.5-.8 2.8-.8h7.5c2.2 0 3.9.2 5.1.5 1.2.3 2.2.8 3.1 1.6.8.8 1.5 1.7 2 2.8.5 1.1.7 2.4.7 3.8 0 2.9-.9 5.2-2.8 6.7-1.8 1.4-4.5 2.2-8.1 2.2zm-1.4-13.3h-4v8.8h4c1.4 0 2.5-.2 3.5-.5.9-.3 1.6-.8 2.1-1.5s.8-1.5.8-2.6c0-1.3-.4-2.3-1.2-3.1-.9-.7-2.6-1.1-5.2-1.1zm27.7 13.3H-.2v8.2c0 1.2-.3 2.1-.8 2.7s-1.2.9-2.1.9c-.9 0-1.6-.3-2.1-.9s-.8-1.5-.8-2.6v-22.3c0-1.3.3-2.2.9-2.8.6-.5 1.5-.8 2.8-.8h7.5c2.2 0 3.9.2 5.1.5 1.2.3 2.2.8 3.1 1.6.8.8 1.5 1.7 2 2.8.5 1.1.7 2.4.7 3.8 0 2.9-.9 5.2-2.8 6.7-1.8 1.4-4.5 2.2-8.1 2.2zm-1.5-13.3h-4v8.8h4c1.4 0 2.5-.2 3.5-.5.9-.3 1.6-.8 2.1-1.5s.8-1.5.8-2.6c0-1.3-.4-2.3-1.2-3.1-.8-.7-2.5-1.1-5.2-1.1zm38.6 15.8c0 1.8-.5 3.3-1.4 4.8-.9 1.4-2.2 2.5-4 3.3-1.8.8-3.8 1.2-6.2 1.2-2.8 0-5.2-.5-7.1-1.6-1.3-.8-2.4-1.8-3.2-3.1-.8-1.3-1.2-2.5-1.2-3.8 0-.7.2-1.3.8-1.8.5-.5 1.2-.8 1.9-.8.6 0 1.2.2 1.5.6.5.4.8 1 1.1 1.8.4.9.8 1.7 1.2 2.3s1 1.2 1.8 1.5c.8.4 1.8.6 3.1.6 1.8 0 3.1-.4 4.2-1.2 1.1-.8 1.6-1.8 1.6-3.1 0-1-.3-1.8-.8-2.4-.6-.6-1.4-1.1-2.3-1.4-.9-.3-2.1-.7-3.8-1-2.1-.5-3.8-1.1-5.2-1.7-1.4-.6-2.5-1.5-3.4-2.7-.8-1.2-1.2-2.5-1.2-4.2 0-1.6.5-3 1.3-4.2s2.1-2.2 3.8-2.8c1.6-.7 3.6-1 5.8-1 1.8 0 3.3.2 4.6.7 1.3.5 2.4 1 3.2 1.8.8.8 1.5 1.5 1.8 2.3.4.8.6 1.6.6 2.4 0 .7-.2 1.3-.8 1.9-.5.5-1.1.8-1.8.8s-1.2-.2-1.5-.5c-.4-.3-.8-.9-1.2-1.7-.5-1.1-1.2-1.9-1.9-2.5-.8-.6-1.9-.9-3.5-.9-1.5 0-2.8.3-3.7 1s-1.4 1.5-1.4 2.4c0 .6.2 1.1.5 1.5.3.5.8.8 1.3 1.1.5.3 1.2.5 1.7.7.5.2 1.5.4 2.8.8 1.6.4 3.1.8 4.5 1.2 1.3.5 2.5 1 3.4 1.7.9.7 1.7 1.5 2.1 2.5.7.9 1 2.1 1 3.5zm12.1-3.6h-2.1v9.3c0 1.2-.3 2.1-.8 2.7-.5.6-1.2.8-2.1.8-.9 0-1.7-.3-2.1-.9-.5-.6-.8-1.5-.8-2.7v-22.3c0-1.2.3-2.1.8-2.8.5-.5 1.5-.8 2.8-.8h9.5c1.3 0 2.5.1 3.4.2.9.1 1.8.3 2.5.7.9.4 1.7.9 2.4 1.6.7.7 1.2 1.5 1.6 2.5s.5 1.9.5 3c0 2.1-.6 3.9-1.8 5.2-1.2 1.3-3.1 2.2-5.5 2.8 1.1.5 2.1 1.4 3 2.5.9 1.1 1.8 2.2 2.5 3.5.8 1.2 1.3 2.3 1.8 3.3.4 1 .6 1.7.6 2 0 .4-.2.8-.4 1.2-.2.4-.6.7-1 .9-.4.2-.9.3-1.5.3-.7 0-1.2-.2-1.7-.5s-.8-.7-1.2-1.2c-.3-.5-.8-1.2-1.3-2.1l-2.4-3.9c-.8-1.5-1.6-2.5-2.3-3.3s-1.3-1.2-2-1.5c-.5-.4-1.3-.5-2.4-.5zm3.4-12.2h-5.4v8h5.3c1.4 0 2.6-.2 3.5-.4 1-.2 1.7-.7 2.2-1.2.5-.6.8-1.4.8-2.5 0-.8-.2-1.5-.6-2.1-.4-.6-1-1.1-1.7-1.4-.8-.3-2.1-.4-4.1-.4z"/><path d="M93.3 101.8H91v3.5c0 .5-.2.8-.4 1.2-.2.2-.5.4-.9.4s-.7-.2-.9-.4-.3-.6-.3-1.2v-9.4c0-.5.2-.9.4-1.2.2-.2.6-.4 1.2-.4h3.1c.9 0 1.7.1 2.1.2.5.2.9.4 1.3.7.4.3.6.7.8 1.2.2.5.3 1 .3 1.6 0 1.2-.4 2.2-1.2 2.8-.6.7-1.8 1-3.2 1zm-.6-5.6H91v3.8h1.7c.6 0 1.1-.1 1.5-.2.4-.1.7-.3.9-.6.2-.3.3-.6.3-1.1 0-.5-.2-1-.5-1.3-.4-.5-1.2-.6-2.2-.6zm12.8 6.5H101c0 .5.1 1 .3 1.4.2.4.5.7.8.9.3.2.7.3 1.2.3.3 0 .5 0 .8-.1.2-.1.5-.2.7-.3s.4-.3.6-.5c.2-.2.4-.4.7-.6.2-.1.3-.2.5-.2s.5.1.5.2c.1.2.2.3.2.5s-.1.5-.2.7-.4.5-.8.8c-.3.2-.8.5-1.2.6s-1.1.2-1.7.2c-1.5 0-2.6-.4-3.5-1.2s-1.2-2-1.2-3.4c0-.7.1-1.3.3-1.8.2-.5.5-1.1.8-1.5.4-.4.8-.7 1.5-.9.5-.2 1.2-.3 1.8-.3.9 0 1.7.2 2.3.5s1.2.8 1.5 1.5c.3.6.5 1.2.5 1.8 0 .5-.2.9-.5 1.2-.3.1-.8.2-1.4.2zm-4.5-1.3h4.1c-.1-.8-.2-1.4-.6-1.8-.4-.4-.8-.6-1.5-.6-.5 0-1 .2-1.4.6s-.5 1-.6 1.8zm10.6 2.1v1.9c0 .5-.1.8-.3 1.1-.2.2-.5.4-.8.4-.3 0-.6-.2-.8-.4-.2-.2-.3-.6-.3-1v-6.4c0-1 .4-1.5 1.1-1.5.4 0 .6.2.8.4.2.2.2.6.3 1.1.3-.5.5-.8.8-1.1.3-.2.7-.4 1.2-.4s.9.2 1.4.4c.5.2.7.5.7.9 0 .3-.1.5-.3.7-.2.2-.4.3-.6.3-.1 0-.3-.1-.6-.2s-.6-.2-.8-.2c-.3 0-.6.1-.8.2-.2.2-.4.5-.5.8-.1.3-.2.8-.2 1.2-.3.5-.3 1.1-.3 1.8zm12.1.3c0 .6-.2 1.2-.5 1.6-.3.5-.8.8-1.4 1s-1.3.4-2.1.4-1.5-.2-2.1-.4c-.5-.2-1-.5-1.3-.9-.3-.4-.4-.8-.4-1.2 0-.2.1-.5.2-.6s.4-.2.7-.2c.2 0 .5.1.5.2.2.2.2.3.4.5.2.4.5.7.8.9.3.2.8.3 1.3.3s.8-.1 1.2-.3c.3-.2.5-.5.5-.7 0-.4-.2-.7-.5-.8-.3-.2-.8-.4-1.5-.5-.8-.2-1.5-.4-1.9-.6-.5-.2-.9-.5-1.2-.8-.2-.4-.5-.8-.5-1.3s.2-.9.4-1.3c.3-.4.7-.8 1.2-1 .5-.2 1.2-.4 1.9-.4.6 0 1.2.1 1.6.2.5.2.8.3 1.2.5.3.2.5.5.7.7.2.2.2.5.2.8 0 .2-.1.5-.2.6-.2.2-.5.2-.8.2-.2 0-.5-.1-.6-.2-.2-.2-.4-.3-.5-.6-.2-.2-.4-.4-.6-.5-.2-.2-.5-.2-.9-.2s-.8.1-1 .2c-.2.2-.4.4-.4.7 0 .2.1.5.3.6.2.2.5.3.8.4.3.1.8.2 1.4.4.7.2 1.3.4 1.8.6.5.2.8.5 1 .8.2.1.3.5.3.9zm10.5-1.6c0 .7-.1 1.3-.3 1.9-.2.5-.5 1.1-.9 1.5-.4.4-.8.7-1.5.9-.5.2-1.2.3-1.8.3-.7 0-1.3-.1-1.8-.3-.5-.2-1-.5-1.5-.9s-.7-.9-.9-1.5-.3-1.2-.3-1.8c0-.7.1-1.3.3-1.9.2-.5.5-1.1.9-1.5.4-.4.8-.7 1.5-.9.5-.2 1.2-.3 1.8-.3.7 0 1.3.1 1.8.3s1.1.5 1.5.9c.4.4.7.9.9 1.5.1.5.3 1.1.3 1.8zm-2.3 0c0-.9-.2-1.7-.6-2.1-.4-.5-1-.8-1.7-.8-.5 0-.8.2-1.2.4-.3.2-.6.5-.8 1-.2.5-.3 1-.3 1.6 0 .6.1 1.2.3 1.5.2.5.5.8.8 1 .3.2.8.4 1.2.4.7 0 1.2-.2 1.7-.8.5-.6.6-1.3.6-2.2zm6.1-3.4v.3c.4-.5.8-.9 1.3-1.2.5-.2 1-.4 1.6-.4.6 0 1.2.2 1.6.4.5.2.8.6 1.1 1.1.2.3.2.6.3.9.1.3.1.8.1 1.2v4.2c0 .5-.1.8-.3 1s-.5.4-.8.4c-.3 0-.6-.2-.8-.4-.2-.2-.3-.6-.3-1v-3.8c0-.8-.1-1.3-.3-1.7s-.6-.6-1.2-.6c-.4 0-.8.2-1.1.4s-.6.5-.8 1c-.1.3-.2 1-.2 1.9v2.8c0 .5-.1.8-.3 1.1-.2.2-.5.4-.8.4-.3 0-.6-.2-.8-.4-.2-.2-.3-.6-.3-1v-6.6c0-.5.1-.8.3-1 .2-.2.5-.3.8-.3.2 0 .4.1.5.2.2.1.3.2.4.5-.1 0 0 .3 0 .6zm14.1 6.7c-.5.5-1.1.8-1.6 1-.5.2-1.1.3-1.8.3-.6 0-1.1-.2-1.5-.4s-.8-.5-1-.9c-.2-.4-.4-.8-.4-1.3 0-.6.2-1.2.6-1.6s.9-.8 1.6-.9c.2 0 .5-.1 1.1-.2.5-.2 1.1-.2 1.5-.3s.8-.2 1.3-.4c0-.6-.2-1.1-.4-1.3-.2-.2-.7-.4-1.3-.4-.6 0-1 .1-1.3.2-.3.2-.5.4-.8.7-.2.3-.4.5-.5.6s-.3.2-.5.2-.5-.1-.7-.2c-.2-.2-.3-.4-.3-.6 0-.4.2-.8.5-1.2s.7-.7 1.3-.9c.6-.2 1.4-.4 2.2-.4 1 0 1.8.2 2.4.4.5.2 1 .6 1.2 1.2.2.5.4 1.2.4 2.1v2.6c0 .5.1.8.2 1.3.2.5.2.8.2.9 0 .2-.1.5-.3.6-.2.2-.5.3-.8.3-.2 0-.5-.1-.7-.3-.2-.4-.4-.7-.6-1.1zm-.2-3.3c-.3.2-.8.2-1.5.4-.6.2-1.1.2-1.3.3-.2.1-.5.2-.7.4-.2.2-.3.5-.3.8 0 .4.2.6.4.8.2.2.6.4 1 .4.5 0 .8-.1 1.2-.3s.7-.5.8-.8c.2-.4.3-.9.3-1.7l.1-.3zm4.5 3.2v-9.9c0-.5.1-.8.3-1.1.2-.2.5-.4.8-.4s.6.2.8.4.3.6.3 1.1v9.9c0 .5-.1.8-.3 1.1-.2.2-.5.4-.8.4-.3 0-.6-.2-.8-.4-.1-.4-.3-.7-.3-1.1zm13.8-3.6h-2.3v3.5c0 .5-.2.8-.4 1.2-.2.2-.5.4-.9.4s-.7-.2-.9-.4c-.2-.2-.3-.6-.3-1.2v-9.4c0-.5.2-.9.4-1.2.2-.2.6-.4 1.2-.4h3.1c.9 0 1.7.1 2.1.2.5.2.9.4 1.3.7.4.3.6.7.8 1.2.2.5.3 1 .3 1.6 0 1.2-.4 2.2-1.2 2.8-.5.7-1.6 1-3.2 1zm-.5-5.6H168v3.8h1.7c.6 0 1.1-.1 1.5-.2.4-.1.7-.3.9-.6.2-.3.3-.6.3-1.1 0-.5-.2-1-.5-1.3-.3-.5-1.1-.6-2.2-.6zm9.4 7.3v1.9c0 .5-.1.8-.3 1.1-.2.2-.5.4-.8.4-.3 0-.6-.2-.8-.4-.2-.2-.3-.6-.3-1v-6.4c0-1 .4-1.5 1.1-1.5.4 0 .6.2.8.4.2.2.2.6.3 1.1.3-.5.5-.8.8-1.1.3-.2.7-.4 1.2-.4s.9.2 1.4.4c.5.2.7.5.7.9 0 .3-.1.5-.3.7-.2.2-.4.3-.6.3-.1 0-.3-.1-.6-.2s-.6-.2-.8-.2c-.3 0-.6.1-.8.2-.2.2-.4.5-.5.8-.1.3-.2.8-.2 1.2-.3.5-.3 1.1-.3 1.8zm13.1-1.3c0 .7-.1 1.3-.3 1.9-.2.5-.5 1.1-.9 1.5s-.8.7-1.5.9c-.5.2-1.2.3-1.9.3s-1.3-.1-1.8-.3c-.5-.2-1-.5-1.5-.9s-.7-.9-.9-1.5c-.2-.5-.3-1.2-.3-1.8 0-.7.1-1.3.3-1.9.2-.5.5-1.1.9-1.5s.8-.7 1.5-.9c.6-.2 1.2-.3 1.8-.3.7 0 1.3.1 1.9.3.5.2 1.1.5 1.5.9s.7.9.9 1.5c.1.5.3 1.1.3 1.8zm-2.3 0c0-.9-.2-1.7-.6-2.1-.4-.5-1-.8-1.7-.8-.5 0-.8.2-1.2.4-.3.2-.6.5-.8 1s-.3 1-.3 1.6c0 .6.1 1.2.3 1.5.2.5.5.8.8 1 .3.2.8.4 1.2.4.7 0 1.2-.2 1.7-.8.5-.6.6-1.3.6-2.2zm6.2-3.4v.3c.5-.5.8-.9 1.3-1.2s1-.4 1.5-.4c.7 0 1.4.2 1.9.5.6.4 1.1.9 1.4 1.6.3.7.5 1.5.5 2.5 0 .7-.1 1.4-.3 1.9-.2.6-.5 1.1-.8 1.5s-.8.7-1.2.9c-.5.2-1 .3-1.5.3-.6 0-1.2-.2-1.6-.4-.5-.2-.8-.6-1.2-1.2v3.5c0 1-.4 1.5-1.1 1.5-.5 0-.7-.2-.8-.4-.2-.2-.2-.6-.2-1.2v-9.9c0-.5.1-.8.3-1 .2-.2.5-.3.8-.3.3 0 .6.1.8.3 0 .4.2.8.2 1.2zm4.5 3.3c0-.6-.1-1.2-.3-1.5-.2-.5-.5-.8-.8-1-.3-.2-.7-.4-1.1-.4-.6 0-1.2.2-1.6.8-.5.5-.6 1.2-.6 2.2 0 .9.2 1.6.6 2.1.5.5 1 .8 1.6.8.4 0 .8-.1 1.1-.3.3-.2.6-.5.8-1 .1-.6.3-1.1.3-1.7zm10.4.6h-4.5c0 .5.1 1 .3 1.4.2.4.5.7.8.9.3.2.7.3 1.2.3.3 0 .5 0 .8-.1.2-.1.5-.2.7-.3.2-.2.4-.3.6-.5.2-.2.4-.4.7-.6.2-.1.3-.2.5-.2s.5.1.5.2c.1.2.2.3.2.5s-.1.5-.2.7c-.2.3-.4.5-.8.8-.3.2-.8.5-1.2.6s-1.1.2-1.7.2c-1.5 0-2.6-.4-3.5-1.2s-1.2-2-1.2-3.4c0-.7.1-1.3.3-1.8.2-.5.5-1.1.8-1.5.4-.4.8-.7 1.5-.9.5-.2 1.2-.3 1.8-.3.9 0 1.7.2 2.3.5.6.4 1.2.8 1.5 1.5s.5 1.2.5 1.8c0 .5-.2.9-.5 1.2-.3.1-.8.2-1.4.2zm-4.5-1.3h4.1c-.1-.8-.2-1.4-.6-1.8s-.8-.6-1.5-.6c-.5 0-1 .2-1.4.6s-.5 1-.6 1.8zm10.6 2.1v1.9c0 .5-.1.8-.3 1.1-.2.2-.5.4-.8.4-.3 0-.6-.2-.8-.4-.2-.2-.3-.6-.3-1v-6.4c0-1 .4-1.5 1.1-1.5.4 0 .6.2.8.4.2.2.2.6.3 1.1.3-.5.5-.8.8-1.1.3-.2.7-.4 1.2-.4s.9.2 1.4.4c.5.2.7.5.7.9 0 .3-.1.5-.3.7-.2.2-.4.3-.6.3-.1 0-.3-.1-.6-.2s-.6-.2-.8-.2c-.3 0-.6.1-.8.2-.2.2-.4.5-.5.8-.2.3-.2.8-.2 1.2s-.3 1.1-.3 1.8zm5.6-5.8h.2v-2.2c0-.2.1-.4.2-.5.1-.2.2-.3.4-.4.2-.1.4-.2.5-.2.3 0 .5.1.8.3.2.2.2.3.3.5.1.2.1.5.1.9v1.5h.8c.3 0 .5.1.8.2.2.2.2.4.2.6 0 .3-.2.5-.4.6-.2.2-.6.2-1.1.2h-.5v5.1c0 .2.1.4.2.5.1.2.3.2.5.2s.3 0 .5-.1.4-.1.5-.1c.2 0 .4.1.5.2.2.2.2.3.2.5 0 .4-.2.6-.6.8s-1 .3-1.8.3c-.7 0-1.2-.2-1.6-.4s-.6-.5-.7-1-.2-1-.2-1.7v-4.4h-.3c-.3 0-.6-.1-.8-.2-.2-.2-.2-.4-.2-.6 0-.2.1-.5.3-.6.5.1.8 0 1.2 0zm8 9.4l.2-.5-2.8-7.1c-.2-.4-.2-.7-.2-.9 0-.2.1-.4.2-.5.1-.2.2-.3.4-.4.2-.1.4-.2.5-.2.3 0 .6.1.8.3.2.2.3.5.5.9l1.9 5.6 1.8-5.2c.2-.5.3-.8.4-1 .2-.2.2-.4.4-.5.2-.1.3-.2.5-.2s.3.1.5.2.3.2.4.4c.1.2.2.3.2.5 0 .1-.1.2-.1.5-.1.2-.1.4-.2.6l-3 7.7c-.2.7-.5 1.2-.8 1.6-.2.4-.5.7-1 .9-.4.2-.9.3-1.6.3s-1.2-.1-1.5-.2c-.3-.2-.5-.4-.5-.8 0-.2.1-.5.2-.6s.4-.2.7-.2c.2 0 .2 0 .4.1.2 0 .3.1.4.1.2 0 .5-.1.6-.2.2-.1.3-.2.4-.4 0-.2.2-.4.3-.8zM97.8 123.4c0 .8-.2 1.4-.5 2s-.9 1.1-1.7 1.4c-.8.3-1.6.5-2.6.5-1.2 0-2.2-.2-3-.7-.5-.3-1-.8-1.4-1.3-.4-.5-.5-1.1-.5-1.6 0-.3.1-.5.3-.8s.5-.3.8-.3c.2 0 .5.1.7.2.2.2.3.4.5.8s.3.7.5 1c.2.2.5.5.8.6.3.2.8.2 1.3.2.8 0 1.3-.2 1.8-.5s.7-.8.7-1.3c0-.4-.2-.8-.4-1-.2-.2-.5-.5-1-.6-.4-.2-.9-.3-1.6-.5-.8-.2-1.6-.5-2.2-.7-.6-.3-1.1-.6-1.4-1.2-.4-.5-.5-1.1-.5-1.8s.2-1.3.5-1.8c.4-.5.9-.9 1.6-1.2.7-.3 1.5-.4 2.5-.4.8 0 1.4.1 1.9.3.5.2 1 .5 1.4.8.4.3.6.6.8 1 .2.4.2.7.2 1 0 .3-.1.5-.3.8s-.5.4-.8.4c-.3 0-.5-.1-.6-.2-.2-.2-.3-.4-.5-.7-.2-.5-.5-.8-.8-1.1-.3-.2-.8-.4-1.5-.4-.6 0-1.2.2-1.5.4s-.6.6-.6 1c0 .2.1.5.2.6l.5.5c.2.2.5.2.7.3.2.1.6.2 1.2.3.7.2 1.3.3 1.8.5s1.1.5 1.5.7.7.6.9 1.1c.2.6.3 1.1.3 1.7zm8.3-.1h-4.5c0 .5.1 1 .3 1.4s.5.7.8.9c.3.2.7.3 1.2.3.3 0 .5 0 .8-.1.2-.1.5-.2.7-.3.2-.2.4-.3.6-.5.2-.2.4-.4.7-.6.2-.1.3-.2.5-.2s.5.1.5.2.2.3.2.5-.1.5-.2.7c-.2.2-.4.5-.8.8-.3.2-.8.5-1.2.6-.5.2-1.1.2-1.7.2-1.5 0-2.6-.4-3.5-1.2-.8-.8-1.2-2-1.2-3.4 0-.7.1-1.3.3-1.8.2-.5.5-1.1.8-1.5s.8-.7 1.5-.9c.5-.2 1.2-.3 1.8-.3.9 0 1.7.2 2.3.5.6.4 1.2.8 1.5 1.5.3.6.5 1.2.5 1.8 0 .5-.2.9-.5 1.2-.3 0-.8.2-1.4.2zm-4.4-1.3h4.1c-.1-.8-.2-1.4-.6-1.8-.4-.4-.8-.6-1.5-.6-.5 0-1 .2-1.4.6s-.6 1-.6 1.8zm16.4 2.5c0 .3-.1.6-.2.9-.2.3-.5.6-.8.9-.4.3-.8.5-1.3.7-.5.2-1.2.2-1.8.2-1.4 0-2.5-.4-3.3-1.2-.8-.8-1.2-1.9-1.2-3.3 0-.9.2-1.8.5-2.5.4-.7.9-1.3 1.5-1.7.7-.4 1.5-.6 2.5-.6.6 0 1.2.1 1.6.2s.9.4 1.2.7c.3.3.6.5.8.8.2.3.3.6.3.8 0 .3-.1.5-.3.7-.2.2-.5.3-.8.3-.2 0-.4-.1-.5-.2-.2-.1-.2-.2-.4-.5-.3-.5-.5-.8-.8-.9-.3-.2-.7-.3-1.2-.3-.7 0-1.2.2-1.6.8-.4.5-.6 1.2-.6 2.1 0 .5.1.8.2 1.2.1.4.2.7.5.9s.5.5.7.6c.2.2.6.2.9.2.5 0 .8-.1 1.2-.3.3-.2.6-.5.8-1 .2-.2.3-.5.5-.6.2-.2.4-.2.6-.2.3 0 .5.1.7.3.2.5.3.8.3 1zm8 1.5v-.3c-.3.4-.5.6-.8.8-.3.2-.6.4-1 .5-.4.1-.8.2-1.2.2-.5 0-1.1-.1-1.5-.3-.5-.2-.8-.5-1-.9-.3-.5-.5-1.2-.5-2.1v-4.5c0-.5.1-.8.3-1 .2-.2.5-.3.8-.3.4 0 .6.1.8.3.2.2.3.5.3 1v3.7c0 .5.1 1 .2 1.3.1.4.2.6.5.8s.5.3.9.3.8-.1 1.1-.3c.3-.2.6-.5.8-.9.2-.3.2-1 .2-2.1v-2.8c0-.5.1-.8.3-1 .2-.2.5-.3.8-.3.3 0 .6.1.8.3.2.2.3.5.3 1v6.6c0 .5-.1.8-.3 1-.2.2-.5.3-.8.3-.3 0-.5-.1-.8-.3-.2-.2-.2-.6-.2-1zm6.6-2v1.9c0 .5-.1.8-.3 1.1-.2.2-.5.4-.8.4-.3 0-.6-.2-.8-.4s-.3-.6-.3-1v-6.4c0-1 .4-1.5 1.1-1.5.4 0 .6.2.8.4.2.2.2.6.3 1.1.3-.5.5-.8.8-1.1.3-.2.7-.4 1.2-.4s.9.2 1.4.4c.5.2.7.5.7.9 0 .3-.1.5-.3.7-.2.2-.4.3-.6.3-.1 0-.3-.1-.6-.2s-.6-.2-.8-.2c-.3 0-.6.1-.8.2-.2.2-.4.5-.5.8-.1.3-.2.8-.2 1.2-.3.5-.3 1.1-.3 1.8zm6.4-7c-.3 0-.6-.1-.8-.3s-.3-.5-.3-.8c0-.3.2-.6.4-.8.2-.2.5-.3.8-.3.3 0 .5.1.8.3.2.2.3.5.3.8s-.1.6-.3.8c-.4.2-.6.3-.9.3zm1.1 2.3v6.6c0 .5-.1.8-.3 1s-.5.4-.8.4-.6-.2-.8-.4c-.2-.2-.3-.6-.3-1v-6.5c0-.5.1-.8.3-1 .2-.2.5-.3.8-.3s.6.1.8.3c.2.2.3.5.3.9zm2.5-1.1h.2V116s.1-.4.2-.5c.1-.2.2-.3.4-.4.2-.1.4-.2.5-.2.3 0 .5.1.8.3.2.2.2.3.3.5.1.2.1.5.1.9v1.5h.8c.3 0 .5.1.8.2.2.2.2.4.2.6 0 .3-.2.5-.4.6-.2.2-.6.2-1.1.2h-.5v5.1c0 .2.1.4.2.5.1.2.3.2.5.2s.3 0 .5-.1.4-.1.5-.1c.2 0 .4.1.5.2s.2.3.2.5c0 .4-.2.6-.6.8-.4.2-1 .3-1.8.3-.7 0-1.2-.2-1.6-.4s-.6-.5-.7-1c-.1-.5-.2-1-.2-1.7v-4.4h-.3c-.3 0-.6-.1-.8-.2-.2-.2-.2-.4-.2-.6 0-.2.1-.5.3-.6.6.1.8 0 1.2 0zm7.1-1.2c-.3 0-.6-.1-.8-.3-.2-.2-.3-.5-.3-.8 0-.3.2-.6.4-.8.2-.2.5-.3.8-.3s.5.1.8.3c.2.2.3.5.3.8s-.1.6-.3.8c-.3.2-.6.3-.9.3zm1.1 2.3v6.6c0 .5-.1.8-.3 1-.2.2-.5.4-.8.4s-.6-.2-.8-.4c-.2-.2-.3-.6-.3-1v-6.5c0-.5.1-.8.3-1 .2-.2.5-.3.8-.3s.6.1.8.3c.2.2.3.5.3.9zm8.8 4h-4.5c0 .5.1 1 .3 1.4.2.4.5.7.8.9.3.2.7.3 1.2.3.3 0 .5 0 .8-.1.2-.1.5-.2.7-.3.2-.2.4-.3.6-.5.2-.2.4-.4.7-.6.2-.1.3-.2.5-.2s.5.1.5.2.2.3.2.5-.1.5-.2.7c-.2.2-.4.5-.8.8-.3.2-.8.5-1.2.6-.5.2-1.1.2-1.7.2-1.5 0-2.6-.4-3.5-1.2-.8-.8-1.2-2-1.2-3.4 0-.7.1-1.3.3-1.8.2-.5.5-1.1.8-1.5s.8-.7 1.5-.9c.5-.2 1.2-.3 1.8-.3.9 0 1.7.2 2.3.5.6.4 1.2.8 1.5 1.5.3.6.5 1.2.5 1.8 0 .5-.2.9-.5 1.2-.4 0-.9.2-1.4.2zm-4.6-1.3h4.1c-.1-.8-.2-1.4-.6-1.8-.4-.4-.8-.6-1.5-.6-.5 0-1 .2-1.4.6s-.5 1-.6 1.8zm15.7 2.3c0 .6-.2 1.2-.5 1.6-.3.5-.8.8-1.4 1-.6.2-1.3.4-2.1.4s-1.5-.2-2.1-.4-1-.5-1.3-.9c-.3-.4-.4-.8-.4-1.2 0-.2.1-.5.2-.6.2-.2.4-.2.7-.2.2 0 .5.1.5.2.2.2.2.3.4.5.2.4.5.7.8.9.3.2.8.3 1.3.3s.8-.1 1.2-.3c.3-.2.5-.5.5-.7 0-.4-.2-.7-.5-.8-.3-.2-.8-.4-1.5-.5-.8-.2-1.5-.4-1.9-.6-.5-.2-.9-.5-1.2-.8-.3-.4-.5-.8-.5-1.3s.2-.9.4-1.3c.3-.4.7-.8 1.2-1 .5-.2 1.2-.4 1.9-.4.6 0 1.2.1 1.6.2.5.2.8.3 1.2.5.3.2.5.5.7.7.2.2.2.5.2.8 0 .2-.1.5-.2.6-.2.2-.5.2-.8.2-.2 0-.5-.1-.6-.2-.2-.2-.4-.3-.5-.6-.2-.2-.4-.4-.6-.5-.2-.2-.5-.2-.9-.2s-.8.1-1 .2c-.3.2-.4.4-.4.7 0 .2.1.5.3.6.2.2.5.3.8.4s.8.2 1.4.4c.7.2 1.3.4 1.8.6.5.2.8.5 1 .8.1.2.3.5.3.9zm9.7-2.4h-.8v3.9c0 .5-.1.9-.3 1.2-.2.2-.5.4-.9.4s-.7-.2-.9-.4c-.2-.2-.3-.6-.3-1.2v-9.4c0-.5.2-.9.4-1.2.2-.2.6-.4 1.2-.4h4.1c.5 0 1 0 1.5.1s.8.2 1.1.3c.4.2.7.4 1 .7.3.3.5.6.7 1.1.2.4.2.8.2 1.2 0 .9-.2 1.6-.8 2.2-.5.5-1.3.9-2.4 1.2.5.2.8.6 1.2 1 .4.5.8.9 1.1 1.5.3.5.5 1 .8 1.4.2.4.2.7.2.8 0 .2-.1.3-.2.5s-.2.3-.5.4c-.2.1-.4.2-.6.2-.3 0-.5-.1-.7-.2-.2-.2-.4-.3-.5-.5-.2-.2-.3-.5-.5-.9l-1-1.7c-.4-.6-.7-1.1-.9-1.4-.3-.3-.5-.5-.8-.6-.6-.2-1-.2-1.4-.2zm1.4-5.2h-2.3v3.4h2.2c.6 0 1.1-.1 1.5-.2.4-.1.7-.3.9-.5.2-.2.3-.6.3-1 0-.3-.1-.6-.2-.9-.2-.2-.4-.5-.7-.6-.3-.2-.8-.2-1.7-.2zm13.4 6.6h-4.5c0 .5.1 1 .3 1.4.2.4.5.7.8.9.3.2.7.3 1.2.3.3 0 .5 0 .8-.1.2-.1.5-.2.7-.3.2-.2.4-.3.6-.5.2-.2.4-.4.7-.6.2-.1.3-.2.5-.2s.5.1.5.2c.1.2.2.3.2.5s-.1.5-.2.7c-.2.3-.4.5-.8.8-.3.2-.8.5-1.2.6-.5.2-1.1.2-1.7.2-1.5 0-2.6-.4-3.5-1.2-.8-.8-1.2-2-1.2-3.4 0-.7.1-1.3.3-1.8.2-.5.5-1.1.8-1.5s.8-.7 1.5-.9c.5-.2 1.2-.3 1.8-.3.9 0 1.7.2 2.3.5.6.4 1.2.8 1.5 1.5.3.6.5 1.2.5 1.8 0 .5-.2.9-.5 1.2-.4 0-.9.2-1.4.2zm-4.6-1.3h4.1c-.1-.8-.2-1.4-.6-1.8s-.8-.6-1.5-.6c-.5 0-1 .2-1.4.6s-.5 1-.6 1.8zm16.5-2.3v6.6c0 .8-.1 1.4-.2 1.9-.2.5-.4 1-.8 1.4s-.8.6-1.4.8c-.6.2-1.3.2-2.1.2s-1.5-.1-2.1-.3c-.6-.2-1.1-.5-1.5-.8-.3-.4-.5-.7-.5-1.1 0-.3.1-.5.3-.7.2-.2.4-.2.7-.2.3 0 .6.2.8.5.2.2.2.3.4.5s.3.3.5.4c.2.1.4.2.5.2.2.1.5.1.8.1.6 0 1.1-.1 1.4-.2.3-.2.5-.4.7-.7.2-.3.2-.6.2-.9 0-.3.1-.8.1-1.6-.4.5-.8.8-1.2 1.2-.5.3-1 .4-1.6.4-.8 0-1.5-.2-2-.6-.5-.4-1-.9-1.3-1.6-.3-.7-.5-1.5-.5-2.5 0-.7.1-1.3.3-1.8.2-.5.5-1 .8-1.4.4-.4.8-.7 1.2-.8.5-.2.9-.3 1.5-.3s1.2.2 1.7.4.9.6 1.3 1.2v-.3c0-.4.1-.7.3-.9.2-.2.5-.3.8-.3.5 0 .8.2.8.5 0-.3.1.2.1.7zm-6.6 2.9c0 .9.2 1.6.6 2.1.4.5.9.7 1.5.7.4 0 .8-.1 1.1-.3.3-.2.6-.5.8-.9s.3-.9.3-1.5c0-.9-.2-1.7-.6-2.1-.4-.5-.9-.8-1.6-.8-.6 0-1.2.2-1.5.8-.4.4-.6 1-.6 2zm10.1-5.6c-.3 0-.6-.1-.8-.3-.2-.2-.3-.5-.3-.8 0-.3.2-.6.4-.8.2-.2.5-.3.8-.3.3 0 .5.1.8.3.2.2.3.5.3.8s-.1.6-.3.8c-.3.3-.6.3-.9.3zm1.1 2.3v6.6c0 .5-.1.8-.3 1-.2.2-.5.4-.8.4s-.6-.2-.8-.4c-.2-.2-.3-.6-.3-1v-6.5c0-.5.1-.8.3-1 .2-.2.5-.3.8-.3s.6.1.8.3c.2.3.3.5.3.9zm9.7 5c0 .6-.2 1.2-.5 1.6-.3.5-.8.8-1.4 1-.6.2-1.3.4-2.1.4s-1.5-.2-2.1-.4c-.6-.2-1-.5-1.3-.9-.3-.4-.4-.8-.4-1.2 0-.2.1-.5.2-.6.2-.2.4-.2.7-.2.2 0 .5.1.5.2.2.2.2.3.4.5.2.4.5.7.8.9.3.2.8.3 1.3.3s.8-.1 1.2-.3c.3-.2.5-.5.5-.7 0-.4-.2-.7-.5-.8-.3-.2-.8-.4-1.5-.5-.8-.2-1.5-.4-1.9-.6-.5-.2-.9-.5-1.2-.8-.3-.4-.5-.8-.5-1.3s.2-.9.4-1.3c.3-.4.7-.8 1.2-1 .5-.2 1.2-.4 1.9-.4.6 0 1.2.1 1.6.2.5.2.8.3 1.2.5.3.2.5.5.7.7.2.2.2.5.2.8 0 .2-.1.5-.2.6-.2.2-.5.2-.8.2-.2 0-.5-.1-.6-.2-.2-.2-.4-.3-.5-.6-.2-.2-.4-.4-.6-.5-.2-.2-.5-.2-.9-.2s-.8.1-1 .2c-.3.2-.4.4-.4.7 0 .2.1.5.3.6.2.2.5.3.8.4.3.1.8.2 1.4.4.7.2 1.3.4 1.8.6.5.2.8.5 1 .8.1.2.3.5.3.9zm2-6.1h.2V116s.1-.4.2-.5c.1-.2.2-.3.4-.4.2-.1.4-.2.5-.2.3 0 .5.1.8.3.2.2.2.3.3.5.1.2.1.5.1.9v1.5h.8c.3 0 .5.1.8.2.2.2.2.4.2.6 0 .3-.2.5-.4.6-.2.2-.6.2-1.1.2h-.5v5.1c0 .2.1.4.2.5.1.2.3.2.5.2s.3 0 .5-.1.4-.1.5-.1c.2 0 .4.1.5.2.2.2.2.3.2.5 0 .4-.2.6-.6.8-.4.2-1 .3-1.8.3-.7 0-1.2-.2-1.6-.4s-.6-.5-.7-1c-.1-.5-.2-1-.2-1.7v-4.4h-.3c-.3 0-.6-.1-.8-.2-.2-.2-.2-.4-.2-.6 0-.2.1-.5.3-.6.6.1.9 0 1.2 0zm12.3 5.1h-4.5c0 .5.1 1 .3 1.4.2.4.5.7.8.9.3.2.7.3 1.2.3.3 0 .5 0 .8-.1.2-.1.5-.2.7-.3.2-.2.4-.3.6-.5.2-.2.4-.4.7-.6.2-.1.3-.2.5-.2s.5.1.5.2c.1.2.2.3.2.5s-.1.5-.2.7c-.2.3-.4.5-.8.8-.3.2-.8.5-1.2.6-.5.2-1.1.2-1.7.2-1.5 0-2.6-.4-3.5-1.2-.8-.8-1.2-2-1.2-3.4 0-.7.1-1.3.3-1.8.2-.5.5-1.1.8-1.5s.8-.7 1.5-.9c.5-.2 1.2-.3 1.8-.3.9 0 1.7.2 2.3.5.6.4 1.2.8 1.5 1.5.3.6.5 1.2.5 1.8 0 .5-.2.9-.5 1.2-.4 0-.8.2-1.4.2zm-4.4-1.3h4.1c-.1-.8-.2-1.4-.6-1.8s-.8-.6-1.5-.6c-.5 0-1 .2-1.4.6s-.5 1-.6 1.8zm10.5 2v1.9c0 .5-.1.8-.3 1.1-.2.2-.5.4-.8.4-.3 0-.6-.2-.8-.4-.2-.2-.3-.6-.3-1v-6.4c0-1 .4-1.5 1.1-1.5.4 0 .6.2.8.4.2.2.2.6.3 1.1.3-.5.5-.8.8-1.1.3-.2.7-.4 1.2-.4s.9.2 1.4.4c.5.2.7.5.7.9 0 .3-.1.5-.3.7-.2.2-.4.3-.6.3-.1 0-.3-.1-.6-.2s-.6-.2-.8-.2c-.3 0-.6.1-.8.2-.2.2-.4.5-.5.8-.2.4-.2.8-.2 1.2-.3.5-.3 1.1-.3 1.8z"/></svg>