<svg id="Layer_1" xmlns="http://www.w3.org/2000/svg" viewBox="-155 45 288.3 111"><style>.st0{fill:#FFFFFF;} .st1{fill:#981B1E;} .st2{fill:url(#SVGID_1_);} .st3{fill:#231F20;} .st4{fill:#751113;}</style><path class="st0" d="M-22 76.4c-.6 0-1-.4-1-1v-9.8c0-.6.4-1 1-1h9.8c.6 0 1 .4 1 1v9.8c0 .6-.4 1-1 1H-22z"/><path class="st1" d="M-12.2 65.6v9.8H-22v-9.8h9.8m0-2.1H-22c-1.1 0-2.1.9-2.1 2.1v9.8c0 1.1.9 2.1 2.1 2.1h9.8c1.1 0 2.1-.9 2.1-2.1v-9.8c0-1.2-1-2.1-2.1-2.1z"/><path class="st0" d="M-5.9 92.4c-.6 0-1-.4-1-1v-9.8c0-.6.4-1 1-1h9.8c.6 0 1 .4 1 1v9.8c0 .6-.4 1-1 1h-9.8z"/><path class="st1" d="M3.9 81.6v9.8h-9.8v-9.8h9.8m0-2h-9.8c-1.1 0-2.1.9-2.1 2.1v9.8c0 1.1.9 2.1 2.1 2.1h9.8c1.1 0 2.1-.9 2.1-2.1v-9.8c-.1-1.2-1-2.1-2.1-2.1z"/><radialGradient id="SVGID_1_" cx="-49.81" cy="71.775" r="73.15" gradientTransform="matrix(1 0 0 -1 0 154)" gradientUnits="userSpaceOnUse"><stop offset="0" stop-color="#EC1E24"/><stop offset=".186" stop-color="#E51E24"/><stop offset=".454" stop-color="#D21D22"/><stop offset=".77" stop-color="#B31C20"/><stop offset="1" stop-color="#981B1E"/></radialGradient><path class="st2" d="M-26.3 93.6V94.7s0 .1.1.1c0 0 0 .1.1.1 0 0 0 .1.1.1s0 .1.1.1c0 0 0 .1.1.1l.1.1.1.1s.1 0 .1.1.1 0 .1.1c0 0 .1 0 .1.1 0 0 .1 0 .1.1s.1 0 .1 0H21.7s.1 0 .1.1.1 0 .1.1c0 0 .1 0 .1.1 0 0 .1 0 .1.1 0 0 .1 0 .1.1l.1.1.1.1s0 .1.1.1c0 0 0 .1.1.1 0 0 0 .1.1.1 0 0 0 .1.1.1s0 .1 0 .1V131s0 .1-.1.1c0 0 0 .1-.1.1 0 0 0 .1-.1.1s0 .1-.1.1 0 .1-.1.1 0 0-.1.1l-.1.1s-.1 0-.1.1-.1 0-.1.1-.1 0-.1.1-.1 0-.1.1H12.3s-.1 0-.1.1c0 0-.1 0-.1.1 0 0-.1 0-.1.1 0 0-.1 0-.1.1s-.1 0-.1.1l-.1.1-.1.1s0 .1-.1.1c0 0 0 .1-.1.1 0 0 0 .1-.1.1 0 0 0 .1-.1.1s0 .1 0 .1v8.4s0 .1.1.1 0 .1.1.1c0 0 0 .1.1.1s0 .1.1.1 0 .1.1.1 0 0 .1.1l.1.1s.1 0 .1.1.1 0 .1.1.1 0 .1.1.1 0 .1.1.1 0 .1 0h8.4s.1 0 .1.1c0 0 .1 0 .1.1 0 0 .1 0 .1.1 0 0 .1 0 .1.1 0 0 .1 0 .1.1l.1.1.1.1s0 .1.1.1c0 0 0 .1.1.1 0 0 0 .1.1.1 0 0 0 .1.1.1s0 .1 0 .1v8.4s0 .1-.1.1c0 0 0 .1-.1.1 0 0 0 .1-.1.1s0 .1-.1.1 0 .1-.1.1 0 0-.1.1l-.1.1s-.1 0-.1.1-.1 0-.1.1-.1 0-.1.1-.1 0-.1.1H-83.7s-.1 0-.1-.1c0 0-.1 0-.1-.1 0 0-.1 0-.1-.1 0 0-.1 0-.1-.1 0 0-.1 0-.1-.1s0 0-.1-.1l-.1-.1s0-.1-.1-.1c0 0 0-.1-.1-.1 0 0 0-.1-.1-.1s0-.1-.1-.1V144.6c0-1-.1-1.9 1.9-1.9h5.8c2.6 0 2.7 0 2.7-2.7v-5.4c0-2.7-.1-2.7-2.7-2.7l-5.1-.1c-2.7 0-2.7-1.2-2.7-2.7V48.8s0-.1.1-.1c0 0 0-.1.1-.1 0 0 0-.1.1-.1 0 0 0-.1.1-.1s0-.1.1-.1 0 0 .1-.1l.1-.1s.1 0 .1-.1c0 0 .1 0 .1-.1s.1 0 .1-.1.1 0 .1-.1H-27.3s.1 0 .1.1.1 0 .1.1.1 0 .1.1c0 0 .1 0 .1.1s.1 0 .1.1 0 0 .1.1l.1.1s0 .1.1.1c0 0 0 .1.1.1 0 0 0 .1.1.1s0 .1.1.1 0 .1 0 .1V94.1s0-.4-.1-.5c.1.1.1.1 0 0 .1.1.1.1 0 0 .1.1.1.1 0 0 .1.1.1.1 0 0 .1.1.1.1 0 0 .1.1.1.1 0 0 0 .1 0 .1 0 0 0 .1 0 .1 0 0 0 .1 0 .1 0 0 0 .1 0 .1 0 0 0 .1 0 .1 0 0 0 .1 0 .1 0 0 0 .1 0 .1 0 0 0 .1 0 .1 0 0 0 .1 0 .1 0 0 0 .1 0 .1 0 0 0 .1 0 .1 0 0 0 .1 0 .1 0 0 0 .1 0 0 0 0zm16.2-12c0-1.1-.9-2.1-2.1-2.1H-22c-1.1 0-2.1.9-2.1 2.1v9.8c0 1.1.9 2.1 2.1 2.1h9.8c1.1 0 2.1-.9 2.1-2.1v-9.8zm0-32.1c0-1.1-.9-2.1-2.1-2.1H-22c-1.1 0-2.1.9-2.1 2.1v9.8c0 1.1.9 2.1 2.1 2.1h9.8c1.1 0 2.1-.9 2.1-2.1v-9.8zm16 16.1c0-1.1-.9-2.1-2.1-2.1H-6c-1.1 0-2.1.9-2.1 2.1v9.8c0 1.1.9 2.1 2.1 2.1h9.8c1.1 0 2.1-.9 2.1-2.1v-9.8zm16.1 16c0-1.1-.9-2.1-2.1-2.1h-9.7c-1.1 0-2.1.9-2.1 2.1v9.8c0 1.1.9 2.1 2.1 2.1H20c1.1 0 2.1-.9 2.1-2.1l-.1-9.8z"/><path class="st1" d="M90.3 142.8c0 .6-.4 1-1 1H86c-.6 0-1-.4-1-1v-3.3c0-.5.4-1 1-1h3.3c.6 0 1 .5 1 1v3.3z"/><path class="st3" d="M45.1 143c0 6-3.1 9.4-10.1 9.4-2.1 0-3.9-.3-7-1.3l.4-3.4c2.8 1.2 4.4 1.8 7.1 1.8 3.8 0 6.1-2.6 6.1-6.8v-2h-.1c-1.5 2.1-4.1 3.1-6.6 3.1-5.7 0-8.4-4.6-8.4-9.7s2.9-10.4 8.8-10.4c3.5 0 5.4 1.2 6.5 3.4h.1v-2.9h3.4V143h-.2zm-3.6-8.7c0-4.1-1.9-7.6-5.8-7.6-3.7 0-5.5 4-5.5 7.3 0 3.7 2.1 6.9 5.5 6.9s5.8-3 5.8-6.6zm15.8-10.6c6 0 10 4.3 10 10.3 0 5.7-4.1 10.3-10 10.3-6 0-10-4.6-10-10.3-.1-6 3.9-10.3 10-10.3zm0 17.7c4.2 0 6.2-3.8 6.2-7.3 0-3.7-2.3-7.3-6.2-7.3s-6.2 3.6-6.2 7.3c0 3.4 1.8 7.3 6.2 7.3zm22.5 2.5h-4.3l-7-19.7h4l5.4 16.1h.1l5.5-16.1h3.6l-7.3 19.7zm15.8-18.4c1.9-1 4-1.9 6.5-1.9 5.7 0 7.9 2.8 7.9 8.1v8.1c0 2.3.1 3.3.2 3.8h-3.4V141h-.1c-.8 1.2-2.8 3-6.1 3-4.2 0-7.2-1.9-7.2-6.2 0-4.9 5.4-6.5 9.2-6.5 1.4 0 2.5 0 3.8.1 0-3.4-1.2-5.2-4.8-5.2-2.1 0-4.2.7-5.7 2l-.3-2.7zm10.8 9l-2.3-.1c-2 0-6.8.3-6.8 3.8 0 2.1 2 3.2 3.7 3.2 3.6 0 5.5-2.3 5.5-5.2v-1.8h-.1v.1zm25.1 9.4H128v-3.1h-.1c-1 2.3-3.7 3.6-6.4 3.6-5 0-7.3-3.2-7.3-8.4v-11.7h3.6v10.2c0 4.6 1 6.8 4.1 7 4.1 0 6-3.3 6-8.1v-9.1h3.6v19.6z"/><path class="st4" d="M-47.5 118.4c1.8-.8 4.2-2 8.2-2 8 0 9.9 3.9 9.9 10.4v11.3c0 1.9.2 3.6.3 4.5h-5.7c-.3-1-.3-2.3-.3-3.5h-.1c-1.5 2.2-3.5 3.9-7.2 3.9-4 0-7.7-2.8-7.7-7.6 0-7 5.8-8.9 13.6-8.9h1.2v-.9c0-2.6-1.2-4.9-4.8-4.9-3.1 0-5.9 1.5-7.1 2.5l-.3-4.8zm12.3 11.8h-.5c-5.4 0-8.6 1.1-8.6 4.8 0 2.4 1.5 4 4 4 3.7 0 5-2.8 5-7.4.1 0 .1-1.4.1-1.4zm25-11.8c1.8-.8 4.2-2 8.2-2 8 0 9.9 3.9 9.9 10.4v11.3c0 1.9.2 3.6.3 4.5H2.5c-.3-1-.3-2.3-.3-3.5h-.1c-1.5 2.2-3.5 3.9-7.2 3.9-4 0-7.7-2.8-7.7-7.6 0-7 5.8-8.9 13.6-8.9H2v-.9c0-2.6-1.2-4.9-4.8-4.9-3.1 0-5.9 1.5-7.1 2.5 0 .1-.3-4.8-.3-4.8zm12.3 11.8h-.5c-5.4 0-8.6 1.1-8.6 4.8 0 2.4 1.5 4 4 4 3.7 0 5-2.8 5-7.4l.1-1.4zm-15.6-8.7V117h-5.2v-7.3l-6.2 1.9v5.4H-29v4.5h4.1v14.2c0 5.5 2.6 7.5 7.2 7.5 1.9 0 3.2-.4 4.2-.8V138c-.4.2-1.2.5-2.4.5-1.9 0-2.8-.8-2.8-3.6v-13.4h5.2zM-51.4 100v38.4c0 1.9 0 3.5.2 4.4h-5.9c-.1-.7-.2-2.3-.2-4h-.1c-1 2.2-2.9 4.4-6.9 4.4-6.5 0-9.1-6.2-9.1-13.3 0-8.4 3.4-13.4 9-13.4 3.7 0 5.8 2.2 6.7 4.1h.1v-18.8c0 .1 6.2-1.8 6.2-1.8zm-11.2 38.6c3.7 0 4.9-4 4.9-8.9 0-5-1.4-8.8-4.8-8.8-3.5 0-4.6 3.4-4.6 8.6-.1 6.1.8 9.1 4.5 9.1z"/><path class="st0" d="M-47.5 119.4c1.8-.8 4.2-2 8.2-2 8 0 9.9 3.9 9.9 10.4v11.3c0 1.9.2 3.6.3 4.5h-5.7c-.3-1-.3-2.3-.3-3.5h-.1c-1.5 2.2-3.5 3.9-7.2 3.9-4 0-7.7-2.8-7.7-7.6 0-7 5.8-8.9 13.6-8.9h1.2v-.9c0-2.6-1.2-4.9-4.8-4.9-3.1 0-5.9 1.5-7.1 2.5l-.3-4.8zm12.3 11.8h-.5c-5.4 0-8.6 1.1-8.6 4.8 0 2.4 1.5 4 4 4 3.7 0 5-2.8 5-7.4.1 0 .1-1.4.1-1.4zm25-11.8c1.8-.8 4.2-2 8.2-2 8 0 9.9 3.9 9.9 10.4v11.3c0 1.9.2 3.6.3 4.5H2.5c-.3-1-.3-2.3-.3-3.5h-.1c-1.5 2.2-3.5 3.9-7.2 3.9-4 0-7.7-2.8-7.7-7.6 0-7 5.8-8.9 13.6-8.9H2v-.9c0-2.6-1.2-4.9-4.8-4.9-3.1 0-5.9 1.5-7.1 2.5 0 .1-.3-4.8-.3-4.8zm12.3 11.8h-.5c-5.4 0-8.6 1.1-8.6 4.8 0 2.4 1.5 4 4 4 3.7 0 5-2.8 5-7.4l.1-1.4zm-15.6-8.7V118h-5.2v-7.3l-6.2 1.9v5.4H-29v4.5h4.1v14.2c0 5.5 2.6 7.5 7.2 7.5 1.9 0 3.2-.4 4.2-.8V139c-.4.2-1.2.5-2.4.5-1.9 0-2.8-.8-2.8-3.6v-13.4h5.2zM-51.4 101v38.4c0 1.9 0 3.5.2 4.4h-5.9c-.1-.7-.2-2.3-.2-4h-.1c-1 2.2-2.9 4.4-6.9 4.4-6.5 0-9.1-6.2-9.1-13.3 0-8.4 3.4-13.4 9-13.4 3.7 0 5.8 2.2 6.7 4.1h.1V103l6.2-2zm-11.2 38.6c3.7 0 4.9-4 4.9-8.9 0-5-1.4-8.8-4.8-8.8-3.5 0-4.6 3.4-4.6 8.6-.1 6.2.8 9.1 4.5 9.1z"/><path class="st3" d="M-153.1 115.1h3.5v12.2h.1c1.2-2.2 3.5-3.5 6.6-3.5 4.9 0 8.2 4 8.2 9.9 0 6.9-4.4 10.4-8.7 10.4-2.8 0-5.1-1.1-6.5-3.6h-.1l-.2 3.2h-3c.1-1.3.2-3.3.2-5v-23.6h-.1zm3.5 20.7c0 .4 0 .9.2 1.3.6 2.4 2.7 4.1 5.3 4.1 3.7 0 5.9-3 5.9-7.5 0-3.9-2-7.2-5.8-7.2-2.4 0-4.6 1.7-5.3 4.3-.1.4-.2.9-.2 1.5l-.1 3.5zM-132.3 115.1h3.5v28.5h-3.5v-28.5zM-107.3 133.7c0 7.2-5 10.3-9.7 10.3-5.2 0-9.3-3.9-9.3-10 0-6.5 4.3-10.3 9.6-10.3 5.7.1 9.4 4.1 9.4 10zm-15.3.2c0 4.3 2.4 7.5 5.9 7.5 3.4 0 5.9-3.2 5.9-7.5 0-3.3-1.6-7.4-5.8-7.4-4.2-.1-6 3.8-6 7.4zM-88.2 140.8c0 4.5-.9 7.2-2.8 8.9-1.9 1.7-4.7 2.3-7.1 2.3-2.3 0-4.9-.6-6.5-1.6l.9-2.7c1.3.8 3.3 1.6 5.7 1.6 3.6 0 6.3-1.9 6.3-6.8v-2.1h-.1c-1 1.8-3.2 3.3-6.2 3.3-4.8 0-8.3-4.1-8.3-9.5 0-6.6 4.3-10.3 8.8-10.3 3.4 0 5.2 1.7 6.1 3.3h.1l.1-2.9h3.1c-.1 1.4-.2 3-.2 5.3l.1 11.2zm-3.5-8.9c0-.6 0-1.1-.2-1.6-.6-2.1-2.3-3.8-4.9-3.8-3.4 0-5.8 2.8-5.8 7.3 0 3.8 2 7 5.7 7 2.2 0 4.2-1.4 4.9-3.6.2-.6.3-1.3.3-1.9v-3.4z"/></svg>